# This file uses centimeters as units for non-parametric coordinates.

mtllib SubInternalShape.mtl
g default
v 8.824617 -20.000000 -2.867292
v 7.506668 -20.000000 -5.453913
v 5.453913 -20.000000 -7.506667
v 2.867292 -20.000000 -8.824616
v -0.000000 -20.000000 -9.278750
v -2.867292 -20.000000 -8.824615
v -5.453912 -20.000000 -7.506666
v -7.506665 -20.000000 -5.453911
v -8.824614 -20.000000 -2.867291
v -9.278748 -20.000000 -0.000000
v -8.824614 -20.000000 2.867291
v -7.506665 -20.000000 5.453911
v -5.453911 -20.000000 7.506664
v -2.867291 -20.000000 8.824612
v -0.000000 -20.000000 9.278747
v 2.867290 -20.000000 8.824612
v 5.453910 -20.000000 7.506663
v 7.506663 -20.000000 5.453910
v 8.824612 -20.000000 2.867290
v 9.278746 -20.000000 -0.000000
v 7.954899 20.000000 -2.584704
v 6.766841 20.000000 -4.916399
v 4.916398 20.000000 -6.766841
v 2.584703 20.000000 -7.954899
v -0.000000 20.000000 -8.364275
v -2.584703 20.000000 -7.954898
v -4.916397 20.000000 -6.766840
v -6.766839 20.000000 -4.916397
v -7.954897 20.000000 -2.584703
v -8.364273 20.000000 -0.000000
v -7.954897 20.000000 2.584702
v -6.766839 20.000000 4.916396
v -4.916396 20.000000 6.766838
v -2.584703 20.000000 7.954895
v -0.000000 20.000000 8.364272
v 2.584702 20.000000 7.954895
v 4.916395 20.000000 6.766837
v 6.766837 20.000000 4.916396
v 7.954894 20.000000 2.584702
v 8.364270 20.000000 -0.000000
v 0.000000 -20.000000 0.000000
v 0.000000 20.000000 0.000000
v -6.628509 -1.589916 9.123366
v -9.123360 -1.589916 6.628513
v -10.725160 -1.589916 3.484817
v -11.277096 -1.589916 0.000000
v -10.725160 -1.589916 -3.484816
v -9.123361 -1.589916 -6.628515
v -6.628510 -1.589916 -9.123371
v -3.484812 -1.589916 -10.725167
v 0.000005 -1.589916 -11.277105
v 3.484824 -1.589916 -10.725167
v 6.628523 -1.589916 -9.123372
v 9.123375 -1.589916 -6.628516
v 10.725172 -1.589916 -3.484817
v 11.277106 -1.589916 0.000000
v 10.725167 -1.589916 3.484816
v 9.123373 -1.589916 6.628513
v 6.628519 -1.589916 9.123366
v 3.484822 -1.589916 10.725162
v 0.000004 -1.589916 11.277100
v -3.484811 -1.589916 10.725162
vt 0.648603 0.107966
vt 0.626409 0.064408
vt 0.591842 0.029841
vt 0.548284 0.007647
vt 0.500000 -0.000000
vt 0.451716 0.007647
vt 0.408159 0.029841
vt 0.373591 0.064409
vt 0.351397 0.107966
vt 0.343750 0.156250
vt 0.351397 0.204534
vt 0.373591 0.248091
vt 0.408159 0.282659
vt 0.451716 0.304853
vt 0.500000 0.312500
vt 0.548284 0.304853
vt 0.591841 0.282659
vt 0.626409 0.248091
vt 0.648603 0.204534
vt 0.656250 0.156250
vt 0.375000 0.312500
vt 0.387500 0.312500
vt 0.400000 0.312500
vt 0.412500 0.312500
vt 0.425000 0.312500
vt 0.437500 0.312500
vt 0.450000 0.312500
vt 0.462500 0.312500
vt 0.475000 0.312500
vt 0.487500 0.312500
vt 0.500000 0.312500
vt 0.512500 0.312500
vt 0.525000 0.312500
vt 0.537500 0.312500
vt 0.550000 0.312500
vt 0.562500 0.312500
vt 0.575000 0.312500
vt 0.587500 0.312500
vt 0.600000 0.312500
vt 0.612500 0.312500
vt 0.625000 0.312500
vt 0.375000 0.688440
vt 0.387500 0.688440
vt 0.400000 0.688440
vt 0.412500 0.688440
vt 0.425000 0.688440
vt 0.437500 0.688440
vt 0.450000 0.688440
vt 0.462500 0.688440
vt 0.475000 0.688440
vt 0.487500 0.688440
vt 0.500000 0.688440
vt 0.512500 0.688440
vt 0.525000 0.688440
vt 0.537500 0.688440
vt 0.550000 0.688440
vt 0.562500 0.688440
vt 0.575000 0.688440
vt 0.587500 0.688440
vt 0.600000 0.688440
vt 0.612500 0.688440
vt 0.625000 0.688440
vt 0.648603 0.795466
vt 0.626409 0.751908
vt 0.591842 0.717341
vt 0.548284 0.695147
vt 0.500000 0.687500
vt 0.451716 0.695147
vt 0.408159 0.717341
vt 0.373591 0.751909
vt 0.351397 0.795466
vt 0.343750 0.843750
vt 0.351397 0.892034
vt 0.373591 0.935591
vt 0.408159 0.970159
vt 0.451716 0.992353
vt 0.500000 1.000000
vt 0.548284 0.992353
vt 0.591841 0.970159
vt 0.626409 0.935591
vt 0.648603 0.892034
vt 0.656250 0.843750
vt 0.500000 0.150000
vt 0.500000 0.837500
vt 0.525000 0.485527
vt 0.512500 0.485527
vt 0.500000 0.485527
vt 0.487500 0.485527
vt 0.475000 0.485527
vt 0.462500 0.485527
vt 0.450000 0.485527
vt 0.437500 0.485527
vt 0.425000 0.485527
vt 0.412500 0.485527
vt 0.400000 0.485527
vt 0.387500 0.485527
vt 0.625000 0.485527
vt 0.375000 0.485527
vt 0.612500 0.485527
vt 0.600000 0.485527
vt 0.587500 0.485527
vt 0.575000 0.485527
vt 0.562500 0.485527
vt 0.550000 0.485527
vt 0.537500 0.485527
vn 0.945503 -0.107913 -0.307212
vn 0.804293 -0.107913 -0.584353
vn 0.808858 0.019802 -0.587670
vn 0.950870 0.019802 -0.308956
vn 0.584353 -0.107913 -0.804293
vn 0.587670 0.019802 -0.808858
vn 0.307212 -0.107913 -0.945503
vn 0.308956 0.019802 -0.950870
vn -0.000000 -0.107913 -0.994160
vn -0.000000 0.019802 -0.999804
vn -0.307212 -0.107913 -0.945503
vn -0.308956 0.019802 -0.950870
vn -0.584353 -0.107913 -0.804292
vn -0.587670 0.019802 -0.808858
vn -0.804293 -0.107913 -0.584353
vn -0.808858 0.019802 -0.587670
vn -0.945503 -0.107913 -0.307212
vn -0.950870 0.019802 -0.308956
vn -0.994160 -0.107913 0.000000
vn -0.999804 0.019802 0.000000
vn -0.945503 -0.107913 0.307213
vn -0.950870 0.019802 0.308957
vn -0.804292 -0.107913 0.584353
vn -0.808858 0.019802 0.587670
vn -0.584353 -0.107913 0.804293
vn -0.587670 0.019802 0.808858
vn -0.307212 -0.107913 0.945503
vn -0.308956 0.019802 0.950870
vn 0.000000 -0.107913 0.994160
vn 0.000000 0.019802 0.999804
vn 0.307212 -0.107913 0.945503
vn 0.308956 0.019802 0.950870
vn 0.584353 -0.107913 0.804293
vn 0.587670 0.019802 0.808858
vn 0.804293 -0.107913 0.584353
vn 0.808858 0.019802 0.587670
vn 0.945503 -0.107913 0.307212
vn 0.950870 0.019802 0.308956
vn 0.994160 -0.107913 0.000001
vn 0.999804 0.019802 0.000001
vn 0.000000 -1.000000 0.000000
vn 0.000000 -1.000000 0.000000
vn 0.000000 -1.000000 -0.000000
vn 0.000000 -1.000000 0.000000
vn 0.000000 -1.000000 -0.000000
vn 0.000000 -1.000000 -0.000000
vn 0.000000 -1.000000 0.000000
vn 0.000000 -1.000000 0.000000
vn 0.000000 -1.000000 0.000000
vn 0.000000 -1.000000 0.000000
vn 0.000000 -1.000000 0.000000
vn 0.000000 -1.000000 0.000000
vn 0.000000 -1.000000 0.000000
vn 0.000000 -1.000000 0.000000
vn 0.000000 -1.000000 -0.000000
vn 0.000000 -1.000000 -0.000000
vn 0.000000 -1.000000 0.000000
vn 0.000000 -1.000000 0.000000
vn 0.000000 -1.000000 0.000000
vn 0.000000 -1.000000 0.000000
vn 0.000000 -1.000000 0.000000
vn 0.000000 1.000000 0.000000
vn 0.000000 1.000000 0.000000
vn 0.000000 1.000000 0.000000
vn 0.000000 1.000000 0.000000
vn 0.000000 1.000000 0.000000
vn 0.000000 1.000000 -0.000000
vn 0.000000 1.000000 -0.000000
vn 0.000000 1.000000 0.000000
vn 0.000000 1.000000 0.000000
vn 0.000000 1.000000 0.000000
vn 0.000000 1.000000 0.000000
vn 0.000000 1.000000 0.000000
vn 0.000000 1.000000 0.000000
vn 0.000000 1.000000 0.000000
vn 0.000000 1.000000 0.000000
vn 0.000000 1.000000 0.000000
vn 0.000000 1.000000 0.000000
vn 0.000000 1.000000 0.000000
vn 0.000000 1.000000 0.000000
vn 0.000000 1.000000 0.000000
vn 0.000000 1.000000 0.000000
vn -0.582508 0.133705 0.801753
vn -0.801753 0.133705 0.582508
vn -0.942517 0.133705 0.306243
vn -0.991021 0.133705 -0.000000
vn -0.942517 0.133705 -0.306242
vn -0.801753 0.133705 -0.582508
vn -0.582508 0.133705 -0.801753
vn -0.306243 0.133705 -0.942517
vn -0.000000 0.133705 -0.991021
vn 0.306242 0.133705 -0.942517
vn 0.582508 0.133705 -0.801753
vn 0.801753 0.133705 -0.582508
vn 0.942517 0.133705 -0.306242
vn 0.991021 0.133705 0.000001
vn 0.942517 0.133705 0.306242
vn 0.801753 0.133705 0.582508
vn 0.582508 0.133705 0.801753
vn 0.306242 0.133705 0.942517
vn -0.000000 0.133705 0.991021
vn -0.306242 0.133705 0.942517
s 1
g pCylinder1
usemtl initialShadingGroup
f 1/21/1 2/22/2 54/96/3 55/98/4
f 2/22/2 3/23/5 53/95/6 54/96/3
f 3/23/5 4/24/7 52/94/8 53/95/6
f 4/24/7 5/25/9 51/93/10 52/94/8
f 5/25/9 6/26/11 50/92/12 51/93/10
f 6/26/11 7/27/13 49/91/14 50/92/12
f 7/27/13 8/28/15 48/90/16 49/91/14
f 8/28/15 9/29/17 47/89/18 48/90/16
f 9/29/17 10/30/19 46/88/20 47/89/18
f 10/30/19 11/31/21 45/87/22 46/88/20
f 11/31/21 12/32/23 44/86/24 45/87/22
f 12/32/23 13/33/25 43/85/26 44/86/24
f 13/33/25 14/34/27 62/105/28 43/85/26
f 14/34/27 15/35/29 61/104/30 62/105/28
f 15/35/29 16/36/31 60/103/32 61/104/30
f 16/36/31 17/37/33 59/102/34 60/103/32
f 17/37/33 18/38/35 58/101/36 59/102/34
f 18/38/35 19/39/37 57/100/38 58/101/36
f 19/39/37 20/40/39 56/99/40 57/100/38
f 20/40/39 1/41/1 55/97/4 56/99/40
s 2
f 2/2/41 1/1/42 41/83/43
f 3/3/44 2/2/41 41/83/43
f 4/4/45 3/3/44 41/83/43
f 5/5/46 4/4/45 41/83/43
f 6/6/47 5/5/46 41/83/43
f 7/7/48 6/6/47 41/83/43
f 8/8/49 7/7/48 41/83/43
f 9/9/50 8/8/49 41/83/43
f 10/10/51 9/9/50 41/83/43
f 11/11/52 10/10/51 41/83/43
f 12/12/53 11/11/52 41/83/43
f 13/13/54 12/12/53 41/83/43
f 14/14/55 13/13/54 41/83/43
f 15/15/56 14/14/55 41/83/43
f 16/16/57 15/15/56 41/83/43
f 17/17/58 16/16/57 41/83/43
f 18/18/59 17/17/58 41/83/43
f 19/19/60 18/18/59 41/83/43
f 20/20/61 19/19/60 41/83/43
f 1/1/42 20/20/61 41/83/43
s 3
f 21/81/62 22/80/63 42/84/64
f 22/80/63 23/79/65 42/84/64
f 23/79/65 24/78/66 42/84/64
f 24/78/66 25/77/67 42/84/64
f 25/77/67 26/76/68 42/84/64
f 26/76/68 27/75/69 42/84/64
f 27/75/69 28/74/70 42/84/64
f 28/74/70 29/73/71 42/84/64
f 29/73/71 30/72/72 42/84/64
f 30/72/72 31/71/73 42/84/64
f 31/71/73 32/70/74 42/84/64
f 32/70/74 33/69/75 42/84/64
f 33/69/75 34/68/76 42/84/64
f 34/68/76 35/67/77 42/84/64
f 35/67/77 36/66/78 42/84/64
f 36/66/78 37/65/79 42/84/64
f 37/65/79 38/64/80 42/84/64
f 38/64/80 39/63/81 42/84/64
f 39/63/81 40/82/82 42/84/64
f 40/82/82 21/81/62 42/84/64
s 1
f 44/86/24 43/85/26 33/54/83 32/53/84
f 45/87/22 44/86/24 32/53/84 31/52/85
f 46/88/20 45/87/22 31/52/85 30/51/86
f 47/89/18 46/88/20 30/51/86 29/50/87
f 48/90/16 47/89/18 29/50/87 28/49/88
f 49/91/14 48/90/16 28/49/88 27/48/89
f 50/92/12 49/91/14 27/48/89 26/47/90
f 51/93/10 50/92/12 26/47/90 25/46/91
f 52/94/8 51/93/10 25/46/91 24/45/92
f 53/95/6 52/94/8 24/45/92 23/44/93
f 54/96/3 53/95/6 23/44/93 22/43/94
f 55/98/4 54/96/3 22/43/94 21/42/95
f 56/99/40 55/97/4 21/62/95 40/61/96
f 57/100/38 56/99/40 40/61/96 39/60/97
f 58/101/36 57/100/38 39/60/97 38/59/98
f 59/102/34 58/101/36 38/59/98 37/58/99
f 60/103/32 59/102/34 37/58/99 36/57/100
f 61/104/30 60/103/32 36/57/100 35/56/101
f 62/105/28 61/104/30 35/56/101 34/55/102
f 43/85/26 62/105/28 34/55/102 33/54/83
